%TF.GenerationSoftware,KiCad,Pcbnew,9.0.3*%
%TF.CreationDate,2025-12-16T09:58:44+01:00*%
%TF.ProjectId,PTP_Dario_Ladovic_project1,5054505f-4461-4726-996f-5f4c61646f76,rev?*%
%TF.SameCoordinates,Original*%
%TF.FileFunction,Copper,L1,Top*%
%TF.FilePolarity,Positive*%
%FSLAX46Y46*%
G04 Gerber Fmt 4.6, Leading zero omitted, Abs format (unit mm)*
G04 Created by KiCad (PCBNEW 9.0.3) date 2025-12-16 09:58:44*
%MOMM*%
%LPD*%
G01*
G04 APERTURE LIST*
G04 Aperture macros list*
%AMRoundRect*
0 Rectangle with rounded corners*
0 $1 Rounding radius*
0 $2 $3 $4 $5 $6 $7 $8 $9 X,Y pos of 4 corners*
0 Add a 4 corners polygon primitive as box body*
4,1,4,$2,$3,$4,$5,$6,$7,$8,$9,$2,$3,0*
0 Add four circle primitives for the rounded corners*
1,1,$1+$1,$2,$3*
1,1,$1+$1,$4,$5*
1,1,$1+$1,$6,$7*
1,1,$1+$1,$8,$9*
0 Add four rect primitives between the rounded corners*
20,1,$1+$1,$2,$3,$4,$5,0*
20,1,$1+$1,$4,$5,$6,$7,0*
20,1,$1+$1,$6,$7,$8,$9,0*
20,1,$1+$1,$8,$9,$2,$3,0*%
G04 Aperture macros list end*
%TA.AperFunction,ComponentPad*%
%ADD10RoundRect,0.250000X0.550000X0.550000X-0.550000X0.550000X-0.550000X-0.550000X0.550000X-0.550000X0*%
%TD*%
%TA.AperFunction,ComponentPad*%
%ADD11C,1.600000*%
%TD*%
%TA.AperFunction,SMDPad,CuDef*%
%ADD12RoundRect,0.250000X0.625000X-0.400000X0.625000X0.400000X-0.625000X0.400000X-0.625000X-0.400000X0*%
%TD*%
%TA.AperFunction,ComponentPad*%
%ADD13RoundRect,0.250000X-0.550000X-0.550000X0.550000X-0.550000X0.550000X0.550000X-0.550000X0.550000X0*%
%TD*%
%TA.AperFunction,ComponentPad*%
%ADD14C,2.400000*%
%TD*%
%TA.AperFunction,ComponentPad*%
%ADD15RoundRect,0.250000X0.550000X-0.550000X0.550000X0.550000X-0.550000X0.550000X-0.550000X-0.550000X0*%
%TD*%
%TA.AperFunction,ComponentPad*%
%ADD16RoundRect,0.250000X-0.950000X-0.550000X0.950000X-0.550000X0.950000X0.550000X-0.950000X0.550000X0*%
%TD*%
%TA.AperFunction,ComponentPad*%
%ADD17O,2.400000X1.600000*%
%TD*%
%TA.AperFunction,ComponentPad*%
%ADD18R,1.800000X1.800000*%
%TD*%
%TA.AperFunction,ComponentPad*%
%ADD19C,1.800000*%
%TD*%
%TA.AperFunction,SMDPad,CuDef*%
%ADD20RoundRect,0.250000X-0.400000X-0.625000X0.400000X-0.625000X0.400000X0.625000X-0.400000X0.625000X0*%
%TD*%
%TA.AperFunction,SMDPad,CuDef*%
%ADD21RoundRect,0.250000X-0.650000X0.412500X-0.650000X-0.412500X0.650000X-0.412500X0.650000X0.412500X0*%
%TD*%
%TA.AperFunction,ComponentPad*%
%ADD22C,2.000000*%
%TD*%
%TA.AperFunction,SMDPad,CuDef*%
%ADD23RoundRect,0.250000X-0.412500X-0.650000X0.412500X-0.650000X0.412500X0.650000X-0.412500X0.650000X0*%
%TD*%
%TA.AperFunction,ComponentPad*%
%ADD24O,3.500000X2.200000*%
%TD*%
%TA.AperFunction,ComponentPad*%
%ADD25R,2.500000X1.500000*%
%TD*%
%TA.AperFunction,ComponentPad*%
%ADD26O,2.500000X1.500000*%
%TD*%
%TA.AperFunction,ComponentPad*%
%ADD27R,1.600000X1.600000*%
%TD*%
%TA.AperFunction,ComponentPad*%
%ADD28RoundRect,0.250001X1.149999X-1.149999X1.149999X1.149999X-1.149999X1.149999X-1.149999X-1.149999X0*%
%TD*%
%TA.AperFunction,ComponentPad*%
%ADD29C,2.800000*%
%TD*%
%TA.AperFunction,ComponentPad*%
%ADD30RoundRect,0.249999X-0.850001X-0.850001X0.850001X-0.850001X0.850001X0.850001X-0.850001X0.850001X0*%
%TD*%
%TA.AperFunction,ComponentPad*%
%ADD31C,2.200000*%
%TD*%
%TA.AperFunction,SMDPad,CuDef*%
%ADD32RoundRect,0.150000X-0.512500X-0.150000X0.512500X-0.150000X0.512500X0.150000X-0.512500X0.150000X0*%
%TD*%
%TA.AperFunction,ViaPad*%
%ADD33C,0.600000*%
%TD*%
%TA.AperFunction,Conductor*%
%ADD34C,0.200000*%
%TD*%
G04 APERTURE END LIST*
D10*
%TO.P,U1,1,FB*%
%TO.N,+5V*%
X130305000Y-65810000D03*
D11*
%TO.P,U1,2,SGND*%
%TO.N,GND*%
X130305000Y-63270000D03*
%TO.P,U1,3,~{ON}/OFF*%
X130305000Y-60730000D03*
%TO.P,U1,4,PGND*%
X130305000Y-58190000D03*
%TO.P,U1,5,VIN*%
%TO.N,VD*%
X122685000Y-58190000D03*
%TO.P,U1,6,NC*%
%TO.N,unconnected-(U1-NC-Pad6)*%
X122685000Y-60730000D03*
%TO.P,U1,7,OUT*%
%TO.N,Net-(D4-K)*%
X122685000Y-63270000D03*
%TO.P,U1,8,NC*%
%TO.N,unconnected-(U1-NC-Pad8)*%
X122685000Y-65810000D03*
%TD*%
D12*
%TO.P,R19,1*%
%TO.N,+5V*%
X104500000Y-100600000D03*
%TO.P,R19,2*%
%TO.N,Net-(U7-DIS)*%
X104500000Y-97500000D03*
%TD*%
%TO.P,R11,1*%
%TO.N,+5V*%
X162500000Y-110650000D03*
%TO.P,R11,2*%
%TO.N,Net-(U3A-J)*%
X162500000Y-107550000D03*
%TD*%
D13*
%TO.P,U7,1,GND*%
%TO.N,GND*%
X107695000Y-95190000D03*
D11*
%TO.P,U7,2,TR*%
%TO.N,Net-(U7-THR)*%
X107695000Y-97730000D03*
%TO.P,U7,3,Q*%
%TO.N,555*%
X107695000Y-100270000D03*
%TO.P,U7,4,R*%
%TO.N,+5V*%
X107695000Y-102810000D03*
%TO.P,U7,5,CV*%
%TO.N,unconnected-(U7-CV-Pad5)*%
X115315000Y-102810000D03*
%TO.P,U7,6,THR*%
%TO.N,Net-(U7-THR)*%
X115315000Y-100270000D03*
%TO.P,U7,7,DIS*%
%TO.N,Net-(U7-DIS)*%
X115315000Y-97730000D03*
%TO.P,U7,8,VCC*%
%TO.N,+5V*%
X115315000Y-95190000D03*
%TD*%
D14*
%TO.P,L1,1,1*%
%TO.N,Net-(D4-K)*%
X136000000Y-65500000D03*
%TO.P,L1,2,2*%
%TO.N,+5V*%
X136000000Y-68500000D03*
%TD*%
D12*
%TO.P,R20,1*%
%TO.N,Net-(U7-DIS)*%
X104500000Y-106550000D03*
%TO.P,R20,2*%
%TO.N,Net-(U7-THR)*%
X104500000Y-103450000D03*
%TD*%
D15*
%TO.P,C2,1*%
%TO.N,+5V*%
X136000000Y-59455113D03*
D11*
%TO.P,C2,2*%
%TO.N,GND*%
X136000000Y-57455113D03*
%TD*%
D16*
%TO.P,U4,1,B*%
%TO.N,Q1*%
X169000000Y-83460000D03*
D17*
%TO.P,U4,2,C*%
%TO.N,Q2*%
X169000000Y-86000000D03*
%TO.P,U4,3,LT*%
%TO.N,Net-(U4-BI)*%
X169000000Y-88540000D03*
%TO.P,U4,4,BI*%
X169000000Y-91080000D03*
%TO.P,U4,5,RBI*%
X169000000Y-93620000D03*
%TO.P,U4,6,D*%
%TO.N,Q3*%
X169000000Y-96160000D03*
%TO.P,U4,7,A*%
%TO.N,Q0*%
X169000000Y-98700000D03*
%TO.P,U4,8,GND*%
%TO.N,GND*%
X169000000Y-101240000D03*
%TO.P,U4,9,e*%
%TO.N,Net-(U4-e)*%
X176620000Y-101240000D03*
%TO.P,U4,10,d*%
%TO.N,Net-(U4-d)*%
X176620000Y-98700000D03*
%TO.P,U4,11,c*%
%TO.N,Net-(U4-c)*%
X176620000Y-96160000D03*
%TO.P,U4,12,b*%
%TO.N,Net-(U4-b)*%
X176620000Y-93620000D03*
%TO.P,U4,13,a*%
%TO.N,Net-(U4-a)*%
X176620000Y-91080000D03*
%TO.P,U4,14,g*%
%TO.N,Net-(U4-g)*%
X176620000Y-88540000D03*
%TO.P,U4,15,f*%
%TO.N,Net-(U4-f)*%
X176620000Y-86000000D03*
%TO.P,U4,16,VCC*%
%TO.N,unconnected-(U4-VCC-Pad16)*%
X176620000Y-83460000D03*
%TD*%
D18*
%TO.P,D3,1,K*%
%TO.N,Net-(D3-K)*%
X159000000Y-69500000D03*
D19*
%TO.P,D3,2,A*%
%TO.N,Q2*%
X159000000Y-72040000D03*
%TD*%
D16*
%TO.P,U2,1,Q*%
%TO.N,unconnected-(U2A-Q-Pad1)*%
X139880000Y-83460000D03*
D17*
%TO.P,U2,2,~{Q}*%
%TO.N,Q0*%
X139880000Y-86000000D03*
%TO.P,U2,3,C*%
%TO.N,Clock*%
X139880000Y-88540000D03*
%TO.P,U2,4,R*%
%TO.N,GND*%
X139880000Y-91080000D03*
%TO.P,U2,5,K*%
%TO.N,Net-(U2A-J)*%
X139880000Y-93620000D03*
%TO.P,U2,6,J*%
X139880000Y-96160000D03*
%TO.P,U2,7,S*%
%TO.N,Reset*%
X139880000Y-98700000D03*
%TO.P,U2,8,VSS*%
%TO.N,GND*%
X139880000Y-101240000D03*
%TO.P,U2,9,S*%
%TO.N,Reset*%
X147500000Y-101240000D03*
%TO.P,U2,10,J*%
%TO.N,Net-(U2B-J)*%
X147500000Y-98700000D03*
%TO.P,U2,11,K*%
X147500000Y-96160000D03*
%TO.P,U2,12,R*%
%TO.N,GND*%
X147500000Y-93620000D03*
%TO.P,U2,13,C*%
%TO.N,Q0*%
X147500000Y-91080000D03*
%TO.P,U2,14,~{Q}*%
%TO.N,Q1*%
X147500000Y-88540000D03*
%TO.P,U2,15,Q*%
%TO.N,unconnected-(U2B-Q-Pad15)*%
X147500000Y-86000000D03*
%TO.P,U2,16,VDD*%
%TO.N,+5V*%
X147500000Y-83460000D03*
%TD*%
D18*
%TO.P,D1,1,K*%
%TO.N,Net-(D1-K)*%
X176000000Y-69500000D03*
D19*
%TO.P,D1,2,A*%
%TO.N,Q0*%
X176000000Y-72040000D03*
%TD*%
D20*
%TO.P,R15,1*%
%TO.N,+5V*%
X180900000Y-83000000D03*
%TO.P,R15,2*%
%TO.N,Net-(U4-BI)*%
X184000000Y-83000000D03*
%TD*%
D15*
%TO.P,C1,1*%
%TO.N,VD*%
X117500000Y-56500000D03*
D11*
%TO.P,C1,2*%
%TO.N,GND*%
X117500000Y-54500000D03*
%TD*%
%TO.P,R2,1*%
%TO.N,GND*%
X167500000Y-52000000D03*
%TO.P,R2,2*%
%TO.N,Net-(D2-K)*%
X167500000Y-62160000D03*
%TD*%
D20*
%TO.P,R5,1*%
%TO.N,Net-(U4-a)*%
X180900000Y-95500000D03*
%TO.P,R5,2*%
%TO.N,Net-(U5-A)*%
X184000000Y-95500000D03*
%TD*%
D18*
%TO.P,D2,1,K*%
%TO.N,Net-(D2-K)*%
X167500000Y-69500000D03*
D19*
%TO.P,D2,2,A*%
%TO.N,Q1*%
X167500000Y-72040000D03*
%TD*%
D16*
%TO.P,U3,1,Q*%
%TO.N,unconnected-(U3A-Q-Pad1)*%
X154500000Y-83460000D03*
D17*
%TO.P,U3,2,~{Q}*%
%TO.N,Q2*%
X154500000Y-86000000D03*
%TO.P,U3,3,C*%
%TO.N,Q1*%
X154500000Y-88540000D03*
%TO.P,U3,4,R*%
%TO.N,GND*%
X154500000Y-91080000D03*
%TO.P,U3,5,K*%
%TO.N,Net-(U3A-J)*%
X154500000Y-93620000D03*
%TO.P,U3,6,J*%
X154500000Y-96160000D03*
%TO.P,U3,7,S*%
%TO.N,Reset*%
X154500000Y-98700000D03*
%TO.P,U3,8,VSS*%
%TO.N,GND*%
X154500000Y-101240000D03*
%TO.P,U3,9,S*%
%TO.N,Reset*%
X162120000Y-101240000D03*
%TO.P,U3,10,J*%
%TO.N,Net-(U3B-J)*%
X162120000Y-98700000D03*
%TO.P,U3,11,K*%
X162120000Y-96160000D03*
%TO.P,U3,12,R*%
%TO.N,GND*%
X162120000Y-93620000D03*
%TO.P,U3,13,C*%
%TO.N,Q2*%
X162120000Y-91080000D03*
%TO.P,U3,14,~{Q}*%
%TO.N,Q3*%
X162120000Y-88540000D03*
%TO.P,U3,15,Q*%
%TO.N,unconnected-(U3B-Q-Pad15)*%
X162120000Y-86000000D03*
%TO.P,U3,16,VDD*%
%TO.N,+5V*%
X162120000Y-83460000D03*
%TD*%
D21*
%TO.P,C5,1*%
%TO.N,Net-(U7-THR)*%
X119000000Y-99937500D03*
%TO.P,C5,2*%
%TO.N,GND*%
X119000000Y-103062500D03*
%TD*%
D22*
%TO.P,SW1,1,A*%
%TO.N,GND*%
X159250000Y-119750000D03*
X165750000Y-119750000D03*
%TO.P,SW1,2,A*%
X159250000Y-124250000D03*
X165750000Y-124250000D03*
%TD*%
D11*
%TO.P,R3,1*%
%TO.N,Net-(D3-K)*%
X159000000Y-62000000D03*
%TO.P,R3,2*%
%TO.N,GND*%
X159000000Y-51840000D03*
%TD*%
D23*
%TO.P,C4,1*%
%TO.N,+5V*%
X109875000Y-108500000D03*
%TO.P,C4,2*%
%TO.N,GND*%
X113000000Y-108500000D03*
%TD*%
D11*
%TO.P,R1,1*%
%TO.N,Net-(D1-K)*%
X176000000Y-62080000D03*
%TO.P,R1,2*%
%TO.N,GND*%
X176000000Y-51920000D03*
%TD*%
%TO.P,R4,1*%
%TO.N,Net-(D5-K)*%
X150500000Y-62080000D03*
%TO.P,R4,2*%
%TO.N,GND*%
X150500000Y-51920000D03*
%TD*%
D20*
%TO.P,R14,1*%
%TO.N,Net-(U4-d)*%
X180950000Y-100500000D03*
%TO.P,R14,2*%
%TO.N,Net-(U5-D)*%
X184050000Y-100500000D03*
%TD*%
D12*
%TO.P,R7,1*%
%TO.N,+5V*%
X153500000Y-110600000D03*
%TO.P,R7,2*%
%TO.N,Clock*%
X153500000Y-107500000D03*
%TD*%
D21*
%TO.P,C3,1*%
%TO.N,GND*%
X147500000Y-107500000D03*
%TO.P,C3,2*%
%TO.N,Net-(SW2-A)*%
X147500000Y-110625000D03*
%TD*%
D12*
%TO.P,R12,1*%
%TO.N,+5V*%
X165500000Y-110650000D03*
%TO.P,R12,2*%
%TO.N,Net-(U3B-J)*%
X165500000Y-107550000D03*
%TD*%
D20*
%TO.P,R8,1*%
%TO.N,Net-(U4-c)*%
X180900000Y-93000000D03*
%TO.P,R8,2*%
%TO.N,Net-(U5-C)*%
X184000000Y-93000000D03*
%TD*%
%TO.P,R18,1*%
%TO.N,Net-(U4-g)*%
X180900000Y-88000000D03*
%TO.P,R18,2*%
%TO.N,Net-(U5-G)*%
X184000000Y-88000000D03*
%TD*%
D12*
%TO.P,R10,1*%
%TO.N,+5V*%
X159500000Y-110600000D03*
%TO.P,R10,2*%
%TO.N,Net-(U2B-J)*%
X159500000Y-107500000D03*
%TD*%
D18*
%TO.P,D5,1,K*%
%TO.N,Net-(D5-K)*%
X150500000Y-69500000D03*
D19*
%TO.P,D5,2,A*%
%TO.N,Q3*%
X150500000Y-72040000D03*
%TD*%
D12*
%TO.P,R9,1*%
%TO.N,+5V*%
X156500000Y-110550000D03*
%TO.P,R9,2*%
%TO.N,Net-(U2A-J)*%
X156500000Y-107450000D03*
%TD*%
D20*
%TO.P,R6,1*%
%TO.N,Net-(U4-b)*%
X180900000Y-98130000D03*
%TO.P,R6,2*%
%TO.N,Net-(U5-B)*%
X184000000Y-98130000D03*
%TD*%
D24*
%TO.P,SW2,*%
%TO.N,*%
X125702500Y-88400000D03*
X125702500Y-96600000D03*
D25*
%TO.P,SW2,1,C*%
%TO.N,555*%
X125702500Y-90500000D03*
D26*
%TO.P,SW2,2,B*%
%TO.N,Clock*%
X125702500Y-92500000D03*
%TO.P,SW2,3,A*%
%TO.N,Net-(SW2-A)*%
X125702500Y-94500000D03*
%TD*%
D27*
%TO.P,U5,1,CA*%
%TO.N,+5V*%
X193420000Y-86960000D03*
D11*
%TO.P,U5,2,F*%
%TO.N,Net-(U5-F)*%
X193420000Y-89500000D03*
%TO.P,U5,3,G*%
%TO.N,Net-(U5-G)*%
X193420000Y-92040000D03*
%TO.P,U5,4,E*%
%TO.N,Net-(U5-E)*%
X193420000Y-94580000D03*
%TO.P,U5,5,D*%
%TO.N,Net-(U5-D)*%
X193420000Y-97120000D03*
%TO.P,U5,6,CA*%
%TO.N,+5V*%
X198500000Y-97120000D03*
%TO.P,U5,7,DP*%
%TO.N,unconnected-(U5-DP-Pad7)*%
X198500000Y-94580000D03*
%TO.P,U5,8,C*%
%TO.N,Net-(U5-C)*%
X198500000Y-92040000D03*
%TO.P,U5,9,B*%
%TO.N,Net-(U5-B)*%
X198500000Y-89500000D03*
%TO.P,U5,10,A*%
%TO.N,Net-(U5-A)*%
X198500000Y-86960000D03*
%TD*%
D20*
%TO.P,R17,1*%
%TO.N,Net-(U4-f)*%
X180900000Y-85500000D03*
%TO.P,R17,2*%
%TO.N,Net-(U5-F)*%
X184000000Y-85500000D03*
%TD*%
%TO.P,R16,1*%
%TO.N,Net-(U4-e)*%
X180950000Y-90500000D03*
%TO.P,R16,2*%
%TO.N,Net-(U5-E)*%
X184050000Y-90500000D03*
%TD*%
D28*
%TO.P,J1,1,Pin_1*%
%TO.N,GND*%
X108500000Y-75000000D03*
D29*
%TO.P,J1,2,Pin_2*%
%TO.N,VD*%
X108500000Y-70000000D03*
%TD*%
D12*
%TO.P,R13,1*%
%TO.N,Net-(R13-Pad1)*%
X150500000Y-110550000D03*
%TO.P,R13,2*%
%TO.N,Net-(SW2-A)*%
X150500000Y-107450000D03*
%TD*%
D30*
%TO.P,D4,1,K*%
%TO.N,Net-(D4-K)*%
X123300000Y-52500000D03*
D31*
%TO.P,D4,2,A*%
%TO.N,GND*%
X136000000Y-52500000D03*
%TD*%
D32*
%TO.P,U6,1,A*%
%TO.N,Q1*%
X132500000Y-90550000D03*
%TO.P,U6,2,GND*%
%TO.N,GND*%
X132500000Y-91500000D03*
%TO.P,U6,3,B*%
%TO.N,Q3*%
X132500000Y-92450000D03*
%TO.P,U6,4,Y*%
%TO.N,RESET*%
X134775000Y-92450000D03*
%TO.P,U6,5,VCC*%
%TO.N,+5V*%
X134775000Y-91500000D03*
%TO.P,U6,6,C*%
%TO.N,CLOCK*%
X134775000Y-90550000D03*
%TD*%
D33*
%TO.N,GND*%
X128500000Y-98000000D03*
%TO.N,Reset*%
X158500000Y-101500000D03*
X149500000Y-104500000D03*
%TO.N,+5V*%
X135500000Y-89500000D03*
X132500000Y-88000000D03*
%TO.N,Q0*%
X145500000Y-90579000D03*
X164000000Y-94000000D03*
X175500000Y-79000000D03*
%TO.N,Net-(U4-d)*%
X178721000Y-98500000D03*
%TO.N,Net-(U4-b)*%
X179725707Y-95836681D03*
%TO.N,Net-(U4-a)*%
X180174265Y-95174265D03*
%TO.N,Net-(U4-c)*%
X179000000Y-95500000D03*
%TO.N,Q3*%
X165000000Y-89000000D03*
X155500000Y-81500000D03*
%TO.N,+5V*%
X139000000Y-80000000D03*
%TO.N,Q2*%
X156500000Y-81000000D03*
X155845735Y-86345735D03*
%TO.N,Net-(U2B-J)*%
X151780054Y-101881525D03*
%TO.N,Net-(U5-A)*%
X185500000Y-94500000D03*
%TO.N,Net-(U5-C)*%
X185500000Y-93000000D03*
%TO.N,+5V*%
X136000000Y-92000000D03*
X132500000Y-102500000D03*
%TO.N,Net-(U5-C)*%
X186500000Y-92000000D03*
X187699265Y-93300735D03*
X197000000Y-92000000D03*
%TO.N,Net-(U5-A)*%
X196000000Y-88500000D03*
%TO.N,+5V*%
X168100000Y-80000000D03*
%TO.N,Net-(U2A-J)*%
X149701044Y-102020216D03*
%TO.N,Clock*%
X142500000Y-91680000D03*
%TO.N,GND*%
X133211500Y-91500000D03*
%TO.N,Q3*%
X130797031Y-91797031D03*
%TO.N,+5V*%
X137000000Y-89140000D03*
%TD*%
D34*
%TO.N,GND*%
X159250000Y-124250000D02*
X159250000Y-119750000D01*
X165750000Y-124250000D02*
X159250000Y-124250000D01*
X165750000Y-119750000D02*
X165750000Y-124250000D01*
X159250000Y-119750000D02*
X165750000Y-119750000D01*
X148501000Y-106499000D02*
X147500000Y-107500000D01*
X151360160Y-106499000D02*
X148501000Y-106499000D01*
X151676000Y-106814840D02*
X151360160Y-106499000D01*
X153099390Y-109508550D02*
X151676000Y-108085160D01*
X151676000Y-108085160D02*
X151676000Y-106814840D01*
X166169710Y-109508550D02*
X153099390Y-109508550D01*
X166676000Y-110014840D02*
X166169710Y-109508550D01*
X166676000Y-112324000D02*
X166676000Y-110014840D01*
X159250000Y-119750000D02*
X166676000Y-112324000D01*
X123437500Y-103062500D02*
X128500000Y-98000000D01*
X119000000Y-103062500D02*
X123437500Y-103062500D01*
%TO.N,Reset*%
X157300000Y-101500000D02*
X158500000Y-101500000D01*
X154500000Y-98700000D02*
X157300000Y-101500000D01*
X147500000Y-102500000D02*
X149500000Y-104500000D01*
X147500000Y-101240000D02*
X147500000Y-102500000D01*
X147500000Y-101240000D02*
X147945352Y-101240000D01*
X142420000Y-101240000D02*
X139880000Y-98700000D01*
X147500000Y-101240000D02*
X142420000Y-101240000D01*
%TO.N,Net-(U4-BI)*%
X172979000Y-84561000D02*
X175000000Y-84561000D01*
X169000000Y-93620000D02*
X169000000Y-90561000D01*
X169000000Y-88540000D02*
X169000000Y-91080000D01*
X182824000Y-84176000D02*
X184000000Y-83000000D01*
X179879840Y-84561000D02*
X180264840Y-84176000D01*
X175000000Y-84561000D02*
X179879840Y-84561000D01*
X169000000Y-88540000D02*
X172979000Y-84561000D01*
X180264840Y-84176000D02*
X182824000Y-84176000D01*
%TO.N,+5V*%
X136000000Y-89500000D02*
X136570000Y-90070000D01*
X135500000Y-89500000D02*
X136000000Y-89500000D01*
X136570000Y-90070000D02*
X137000000Y-89640000D01*
X131499000Y-86999000D02*
X132500000Y-88000000D01*
X123506000Y-86999000D02*
X131499000Y-86999000D01*
X115315000Y-95190000D02*
X123506000Y-86999000D01*
%TO.N,Q0*%
X146001000Y-91080000D02*
X145500000Y-90579000D01*
X147500000Y-91080000D02*
X146001000Y-91080000D01*
X164300000Y-94000000D02*
X164000000Y-94000000D01*
X169000000Y-98700000D02*
X164300000Y-94000000D01*
X176000000Y-78500000D02*
X175500000Y-79000000D01*
X176000000Y-72040000D02*
X176000000Y-78500000D01*
%TO.N,Net-(U4-d)*%
X180721000Y-100500000D02*
X178721000Y-98500000D01*
X180950000Y-100500000D02*
X180721000Y-100500000D01*
%TO.N,Net-(U4-b)*%
X179725707Y-96955707D02*
X179725707Y-95836681D01*
X180900000Y-98130000D02*
X179725707Y-96955707D01*
%TO.N,Net-(U4-a)*%
X180500000Y-95500000D02*
X180174265Y-95174265D01*
X180900000Y-95500000D02*
X180500000Y-95500000D01*
%TO.N,Net-(U4-c)*%
X180900000Y-93600000D02*
X179000000Y-95500000D01*
X180900000Y-93000000D02*
X180900000Y-93600000D01*
%TO.N,Net-(U4-e)*%
X178121000Y-93329000D02*
X178121000Y-99739000D01*
X180950000Y-90500000D02*
X178121000Y-93329000D01*
X178121000Y-99739000D02*
X176620000Y-101240000D01*
%TO.N,Net-(U4-g)*%
X177160000Y-88000000D02*
X176620000Y-88540000D01*
X180900000Y-88000000D02*
X177160000Y-88000000D01*
%TO.N,Net-(U4-f)*%
X177120000Y-85500000D02*
X176620000Y-86000000D01*
X180900000Y-85500000D02*
X177120000Y-85500000D01*
%TO.N,Q3*%
X164540000Y-88540000D02*
X165000000Y-89000000D01*
X162120000Y-88540000D02*
X164540000Y-88540000D01*
X155500000Y-77040000D02*
X155500000Y-81500000D01*
X150500000Y-72040000D02*
X155500000Y-77040000D01*
%TO.N,+5V*%
X136000000Y-77000000D02*
X139000000Y-80000000D01*
X136000000Y-68500000D02*
X136000000Y-77000000D01*
%TO.N,Q2*%
X159000000Y-78500000D02*
X156500000Y-81000000D01*
X159000000Y-72040000D02*
X159000000Y-78500000D01*
X162120000Y-91080000D02*
X163920000Y-91080000D01*
X163920000Y-91080000D02*
X169000000Y-86000000D01*
X155500000Y-86000000D02*
X155845735Y-86345735D01*
X154500000Y-86000000D02*
X155500000Y-86000000D01*
%TO.N,Net-(U3A-J)*%
X154500000Y-96160000D02*
X154500000Y-93620000D01*
%TO.N,Net-(U3B-J)*%
X162120000Y-98700000D02*
X162120000Y-96160000D01*
X165500000Y-102080000D02*
X162120000Y-98700000D01*
X165500000Y-107550000D02*
X165500000Y-102080000D01*
%TO.N,Net-(U3A-J)*%
X162500000Y-104160000D02*
X154500000Y-96160000D01*
X162500000Y-107550000D02*
X162500000Y-104160000D01*
%TO.N,Net-(U2B-J)*%
X147500000Y-96160000D02*
X147500000Y-98700000D01*
X153184476Y-101881525D02*
X151780054Y-101881525D01*
X158802951Y-107500000D02*
X153184476Y-101881525D01*
X159500000Y-107500000D02*
X158802951Y-107500000D01*
%TO.N,Net-(U5-A)*%
X185000000Y-94500000D02*
X184000000Y-95500000D01*
X185500000Y-94500000D02*
X185000000Y-94500000D01*
%TO.N,Net-(U5-C)*%
X185500000Y-93000000D02*
X184000000Y-93000000D01*
%TO.N,+5V*%
X136000000Y-92000000D02*
X135500000Y-91500000D01*
X135500000Y-91500000D02*
X134775000Y-91500000D01*
X164561500Y-111588500D02*
X141588500Y-111588500D01*
X165500000Y-110650000D02*
X164561500Y-111588500D01*
X141588500Y-111588500D02*
X132500000Y-102500000D01*
X162500000Y-110650000D02*
X165500000Y-110650000D01*
X159650000Y-110650000D02*
X162500000Y-110650000D01*
X159600000Y-110600000D02*
X159650000Y-110650000D01*
X159500000Y-110600000D02*
X159600000Y-110600000D01*
X157000000Y-110600000D02*
X159500000Y-110600000D01*
X156950000Y-110550000D02*
X157000000Y-110600000D01*
X156500000Y-110550000D02*
X156950000Y-110550000D01*
X156450000Y-110600000D02*
X156500000Y-110550000D01*
X153500000Y-110600000D02*
X156450000Y-110600000D01*
%TO.N,Net-(U5-C)*%
X187699265Y-93199265D02*
X186500000Y-92000000D01*
X187699265Y-93300735D02*
X187699265Y-93199265D01*
X197040000Y-92040000D02*
X197000000Y-92000000D01*
X198500000Y-92040000D02*
X197040000Y-92040000D01*
%TO.N,+5V*%
X196000000Y-89540000D02*
X193420000Y-86960000D01*
X196000000Y-94620000D02*
X196000000Y-89540000D01*
X198500000Y-97120000D02*
X196000000Y-94620000D01*
%TO.N,Net-(U5-C)*%
X198500000Y-92040000D02*
X198500000Y-91800450D01*
%TO.N,Net-(U5-B)*%
X186111000Y-96019000D02*
X184000000Y-98130000D01*
X194214050Y-96019000D02*
X186111000Y-96019000D01*
X196416050Y-98221000D02*
X194214050Y-96019000D01*
X199601000Y-97576050D02*
X198956050Y-98221000D01*
X199601000Y-90601000D02*
X199601000Y-97576050D01*
X198500000Y-89500000D02*
X199601000Y-90601000D01*
X198956050Y-98221000D02*
X196416050Y-98221000D01*
%TO.N,Net-(U5-A)*%
X196960000Y-88500000D02*
X196000000Y-88500000D01*
X198500000Y-86960000D02*
X196960000Y-88500000D01*
%TO.N,Net-(U5-D)*%
X193420000Y-97120000D02*
X187430000Y-97120000D01*
X187430000Y-97120000D02*
X184050000Y-100500000D01*
%TO.N,Net-(U5-E)*%
X188130000Y-94580000D02*
X184050000Y-90500000D01*
X193420000Y-94580000D02*
X188130000Y-94580000D01*
%TO.N,Net-(U5-G)*%
X188040000Y-92040000D02*
X184000000Y-88000000D01*
X193420000Y-92040000D02*
X188040000Y-92040000D01*
%TO.N,Net-(U5-F)*%
X188000000Y-89500000D02*
X184000000Y-85500000D01*
X193420000Y-89500000D02*
X188000000Y-89500000D01*
%TO.N,+5V*%
X148601000Y-82359000D02*
X147500000Y-83460000D01*
X161019000Y-82359000D02*
X148601000Y-82359000D01*
X162120000Y-83460000D02*
X161019000Y-82359000D01*
X177900000Y-80000000D02*
X168100000Y-80000000D01*
X180900000Y-83000000D02*
X177900000Y-80000000D01*
X182900000Y-81000000D02*
X180900000Y-83000000D01*
X185500000Y-81000000D02*
X182900000Y-81000000D01*
X191460000Y-86960000D02*
X185500000Y-81000000D01*
X193420000Y-86960000D02*
X191460000Y-86960000D01*
%TO.N,Q1*%
X167500000Y-81960000D02*
X167500000Y-72040000D01*
X169000000Y-83460000D02*
X167500000Y-81960000D01*
X167561000Y-84899000D02*
X169000000Y-83460000D01*
X158141000Y-84899000D02*
X167561000Y-84899000D01*
X154500000Y-88540000D02*
X158141000Y-84899000D01*
X147500000Y-88540000D02*
X154500000Y-88540000D01*
%TO.N,+5V*%
X102400000Y-100600000D02*
X104500000Y-100600000D01*
X102000000Y-107500000D02*
X102000000Y-101000000D01*
X103000000Y-108500000D02*
X102000000Y-107500000D01*
X109875000Y-108500000D02*
X103000000Y-108500000D01*
X102000000Y-101000000D02*
X102400000Y-100600000D01*
%TO.N,GND*%
X150740000Y-101240000D02*
X154500000Y-101240000D01*
X150000000Y-96120000D02*
X150000000Y-100500000D01*
X147500000Y-93620000D02*
X150000000Y-96120000D01*
X150000000Y-100500000D02*
X150740000Y-101240000D01*
%TO.N,Net-(D4-K)*%
X132000000Y-69500000D02*
X136000000Y-65500000D01*
X121000000Y-64955000D02*
X121000000Y-68500000D01*
X121000000Y-68500000D02*
X122000000Y-69500000D01*
X122000000Y-69500000D02*
X132000000Y-69500000D01*
X122685000Y-63270000D02*
X121000000Y-64955000D01*
%TO.N,Net-(U2A-J)*%
X151070216Y-102020216D02*
X149701044Y-102020216D01*
X156500000Y-107450000D02*
X151070216Y-102020216D01*
%TO.N,Clock*%
X142500000Y-95672900D02*
X142500000Y-91680000D01*
X146966100Y-100139000D02*
X142500000Y-95672900D01*
X149101044Y-100883995D02*
X148356049Y-100139000D01*
X149101044Y-103101044D02*
X149101044Y-100883995D01*
X148356049Y-100139000D02*
X146966100Y-100139000D01*
X153500000Y-107500000D02*
X149101044Y-103101044D01*
%TO.N,GND*%
X132500000Y-91500000D02*
X133211500Y-91500000D01*
%TO.N,Net-(U2A-J)*%
X139880000Y-93620000D02*
X139880000Y-96160000D01*
%TO.N,Q3*%
X131450000Y-92450000D02*
X130797031Y-91797031D01*
X132500000Y-92450000D02*
X131450000Y-92450000D01*
%TO.N,+5V*%
X137000000Y-89640000D02*
X137000000Y-89140000D01*
X135140000Y-91500000D02*
X136570000Y-90070000D01*
X134775000Y-91500000D02*
X135140000Y-91500000D01*
%TO.N,Q1*%
X139023951Y-89979000D02*
X146061000Y-89979000D01*
X146061000Y-89979000D02*
X147500000Y-88540000D01*
X135709051Y-93293900D02*
X139023951Y-89979000D01*
X133811500Y-92790968D02*
X134314432Y-93293900D01*
X133811500Y-91199001D02*
X133811500Y-92790968D01*
X133162499Y-90550000D02*
X133811500Y-91199001D01*
X134314432Y-93293900D02*
X135709051Y-93293900D01*
X132500000Y-90550000D02*
X133162499Y-90550000D01*
%TO.N,GND*%
X167499000Y-99739000D02*
X169000000Y-101240000D01*
X167499000Y-98999000D02*
X167499000Y-99739000D01*
X162120000Y-93620000D02*
X167499000Y-98999000D01*
X159580000Y-91080000D02*
X162120000Y-93620000D01*
X154500000Y-91080000D02*
X159580000Y-91080000D01*
X151500000Y-94080000D02*
X154500000Y-91080000D01*
X151500000Y-98240000D02*
X151500000Y-94080000D01*
X154500000Y-101240000D02*
X151500000Y-98240000D01*
X144960000Y-91080000D02*
X147500000Y-93620000D01*
X139880000Y-91080000D02*
X144960000Y-91080000D01*
X137500000Y-93460000D02*
X139880000Y-91080000D01*
X137500000Y-98860000D02*
X137500000Y-93460000D01*
X139880000Y-101240000D02*
X137500000Y-98860000D01*
X146140000Y-107500000D02*
X139880000Y-101240000D01*
X147500000Y-107500000D02*
X146140000Y-107500000D01*
%TO.N,Net-(SW2-A)*%
X147500000Y-110450000D02*
X150500000Y-107450000D01*
X147500000Y-110625000D02*
X147500000Y-110450000D01*
X142358813Y-110625000D02*
X147500000Y-110625000D01*
X126233813Y-94500000D02*
X142358813Y-110625000D01*
X125702500Y-94500000D02*
X126233813Y-94500000D01*
%TO.N,Clock*%
X133205532Y-88540000D02*
X139880000Y-88540000D01*
X129245532Y-92500000D02*
X133205532Y-88540000D01*
X125702500Y-92500000D02*
X129245532Y-92500000D01*
%TO.N,GND*%
X101599000Y-98589840D02*
X104998840Y-95190000D01*
X103633900Y-109701000D02*
X101599000Y-107666100D01*
X101599000Y-107666100D02*
X101599000Y-98589840D01*
X111799000Y-109701000D02*
X103633900Y-109701000D01*
X104998840Y-95190000D02*
X107695000Y-95190000D01*
X113000000Y-108500000D02*
X111799000Y-109701000D01*
%TO.N,555*%
X120201000Y-100585160D02*
X119415160Y-101371000D01*
X119415160Y-101371000D02*
X108796000Y-101371000D01*
X108796000Y-101371000D02*
X107695000Y-100270000D01*
X120201000Y-96001500D02*
X120201000Y-100585160D01*
X125702500Y-90500000D02*
X120201000Y-96001500D01*
%TO.N,Net-(U7-THR)*%
X115647500Y-99937500D02*
X115315000Y-100270000D01*
X119000000Y-99937500D02*
X115647500Y-99937500D01*
%TO.N,+5V*%
X104500000Y-99367950D02*
X104500000Y-100600000D01*
X107367950Y-96500000D02*
X104500000Y-99367950D01*
X114005000Y-96500000D02*
X107367950Y-96500000D01*
X115315000Y-95190000D02*
X114005000Y-96500000D01*
%TO.N,Net-(U7-THR)*%
X112775000Y-97730000D02*
X115315000Y-100270000D01*
X107695000Y-97730000D02*
X112775000Y-97730000D01*
%TO.N,GND*%
X118437500Y-103062500D02*
X119000000Y-103062500D01*
X113000000Y-108500000D02*
X118437500Y-103062500D01*
%TO.N,+5V*%
X105485000Y-100600000D02*
X104500000Y-100600000D01*
X107695000Y-102810000D02*
X105485000Y-100600000D01*
%TO.N,GND*%
X108500000Y-94385000D02*
X107695000Y-95190000D01*
X108500000Y-75000000D02*
X108500000Y-94385000D01*
X113000000Y-54500000D02*
X117500000Y-54500000D01*
X106000000Y-61500000D02*
X113000000Y-54500000D01*
X106000000Y-72500000D02*
X106000000Y-61500000D01*
X108500000Y-75000000D02*
X106000000Y-72500000D01*
%TO.N,VD*%
X108500000Y-69500000D02*
X117500000Y-60500000D01*
X108500000Y-70000000D02*
X108500000Y-69500000D01*
X117500000Y-60500000D02*
X117500000Y-56500000D01*
%TO.N,+5V*%
X136000000Y-60115000D02*
X130305000Y-65810000D01*
X136000000Y-59455113D02*
X136000000Y-60115000D01*
X137501000Y-60956113D02*
X136000000Y-59455113D01*
X137501000Y-66999000D02*
X137501000Y-60956113D01*
X136000000Y-68500000D02*
X137501000Y-66999000D01*
%TO.N,VD*%
X120995000Y-56500000D02*
X122685000Y-58190000D01*
X117500000Y-56500000D02*
X120995000Y-56500000D01*
%TO.N,GND*%
X131039887Y-57455113D02*
X130305000Y-58190000D01*
X136000000Y-57455113D02*
X131039887Y-57455113D01*
X130305000Y-60730000D02*
X130305000Y-63270000D01*
X130305000Y-58190000D02*
X130305000Y-60730000D01*
X126615000Y-54500000D02*
X130305000Y-58190000D01*
X117500000Y-54500000D02*
X126615000Y-54500000D01*
X175920000Y-52000000D02*
X176000000Y-51920000D01*
X167500000Y-52000000D02*
X175920000Y-52000000D01*
X159000000Y-51840000D02*
X167340000Y-51840000D01*
X167340000Y-51840000D02*
X167500000Y-52000000D01*
X158920000Y-51920000D02*
X159000000Y-51840000D01*
X150500000Y-51920000D02*
X158920000Y-51920000D01*
X149920000Y-52500000D02*
X150500000Y-51920000D01*
X136000000Y-52500000D02*
X149920000Y-52500000D01*
%TO.N,Net-(D1-K)*%
X176000000Y-69500000D02*
X176000000Y-62080000D01*
%TO.N,Net-(D3-K)*%
X159000000Y-69500000D02*
X159000000Y-62000000D01*
%TO.N,Net-(D5-K)*%
X150500000Y-69500000D02*
X150500000Y-62080000D01*
%TO.N,GND*%
X136000000Y-57455113D02*
X136000000Y-52500000D01*
%TO.N,Net-(D2-K)*%
X167500000Y-69500000D02*
X167500000Y-62160000D01*
%TD*%
M02*
