%TF.GenerationSoftware,KiCad,Pcbnew,9.0.3*%
%TF.CreationDate,2025-12-16T09:58:44+01:00*%
%TF.ProjectId,PTP_Dario_Ladovic_project1,5054505f-4461-4726-996f-5f4c61646f76,rev?*%
%TF.SameCoordinates,Original*%
%TF.FileFunction,Soldermask,Bot*%
%TF.FilePolarity,Negative*%
%FSLAX46Y46*%
G04 Gerber Fmt 4.6, Leading zero omitted, Abs format (unit mm)*
G04 Created by KiCad (PCBNEW 9.0.3) date 2025-12-16 09:58:44*
%MOMM*%
%LPD*%
G01*
G04 APERTURE LIST*
G04 Aperture macros list*
%AMRoundRect*
0 Rectangle with rounded corners*
0 $1 Rounding radius*
0 $2 $3 $4 $5 $6 $7 $8 $9 X,Y pos of 4 corners*
0 Add a 4 corners polygon primitive as box body*
4,1,4,$2,$3,$4,$5,$6,$7,$8,$9,$2,$3,0*
0 Add four circle primitives for the rounded corners*
1,1,$1+$1,$2,$3*
1,1,$1+$1,$4,$5*
1,1,$1+$1,$6,$7*
1,1,$1+$1,$8,$9*
0 Add four rect primitives between the rounded corners*
20,1,$1+$1,$2,$3,$4,$5,0*
20,1,$1+$1,$4,$5,$6,$7,0*
20,1,$1+$1,$6,$7,$8,$9,0*
20,1,$1+$1,$8,$9,$2,$3,0*%
G04 Aperture macros list end*
%ADD10RoundRect,0.250000X0.550000X0.550000X-0.550000X0.550000X-0.550000X-0.550000X0.550000X-0.550000X0*%
%ADD11C,1.600000*%
%ADD12C,5.500000*%
%ADD13RoundRect,0.250000X-0.550000X-0.550000X0.550000X-0.550000X0.550000X0.550000X-0.550000X0.550000X0*%
%ADD14C,2.400000*%
%ADD15RoundRect,0.250000X0.550000X-0.550000X0.550000X0.550000X-0.550000X0.550000X-0.550000X-0.550000X0*%
%ADD16RoundRect,0.250000X-0.950000X-0.550000X0.950000X-0.550000X0.950000X0.550000X-0.950000X0.550000X0*%
%ADD17O,2.400000X1.600000*%
%ADD18R,1.800000X1.800000*%
%ADD19C,1.800000*%
%ADD20C,2.000000*%
%ADD21O,3.500000X2.200000*%
%ADD22R,2.500000X1.500000*%
%ADD23O,2.500000X1.500000*%
%ADD24R,1.600000X1.600000*%
%ADD25RoundRect,0.250001X1.149999X-1.149999X1.149999X1.149999X-1.149999X1.149999X-1.149999X-1.149999X0*%
%ADD26C,2.800000*%
%ADD27RoundRect,0.249999X-0.850001X-0.850001X0.850001X-0.850001X0.850001X0.850001X-0.850001X0.850001X0*%
%ADD28C,2.200000*%
G04 APERTURE END LIST*
D10*
%TO.C,U1*%
X130305000Y-65810000D03*
D11*
X130305000Y-63270000D03*
X130305000Y-60730000D03*
X130305000Y-58190000D03*
X122685000Y-58190000D03*
X122685000Y-60730000D03*
X122685000Y-63270000D03*
X122685000Y-65810000D03*
%TD*%
D12*
%TO.C,H4*%
X195500000Y-121500000D03*
%TD*%
D13*
%TO.C,U7*%
X107695000Y-95190000D03*
D11*
X107695000Y-97730000D03*
X107695000Y-100270000D03*
X107695000Y-102810000D03*
X115315000Y-102810000D03*
X115315000Y-100270000D03*
X115315000Y-97730000D03*
X115315000Y-95190000D03*
%TD*%
D14*
%TO.C,L1*%
X136000000Y-65500000D03*
X136000000Y-68500000D03*
%TD*%
D15*
%TO.C,C2*%
X136000000Y-59455113D03*
D11*
X136000000Y-57455113D03*
%TD*%
D16*
%TO.C,U4*%
X169000000Y-83460000D03*
D17*
X169000000Y-86000000D03*
X169000000Y-88540000D03*
X169000000Y-91080000D03*
X169000000Y-93620000D03*
X169000000Y-96160000D03*
X169000000Y-98700000D03*
X169000000Y-101240000D03*
X176620000Y-101240000D03*
X176620000Y-98700000D03*
X176620000Y-96160000D03*
X176620000Y-93620000D03*
X176620000Y-91080000D03*
X176620000Y-88540000D03*
X176620000Y-86000000D03*
X176620000Y-83460000D03*
%TD*%
D18*
%TO.C,D3*%
X159000000Y-69500000D03*
D19*
X159000000Y-72040000D03*
%TD*%
D16*
%TO.C,U2*%
X139880000Y-83460000D03*
D17*
X139880000Y-86000000D03*
X139880000Y-88540000D03*
X139880000Y-91080000D03*
X139880000Y-93620000D03*
X139880000Y-96160000D03*
X139880000Y-98700000D03*
X139880000Y-101240000D03*
X147500000Y-101240000D03*
X147500000Y-98700000D03*
X147500000Y-96160000D03*
X147500000Y-93620000D03*
X147500000Y-91080000D03*
X147500000Y-88540000D03*
X147500000Y-86000000D03*
X147500000Y-83460000D03*
%TD*%
D18*
%TO.C,D1*%
X176000000Y-69500000D03*
D19*
X176000000Y-72040000D03*
%TD*%
D15*
%TO.C,C1*%
X117500000Y-56500000D03*
D11*
X117500000Y-54500000D03*
%TD*%
%TO.C,R2*%
X167500000Y-52000000D03*
X167500000Y-62160000D03*
%TD*%
D18*
%TO.C,D2*%
X167500000Y-69500000D03*
D19*
X167500000Y-72040000D03*
%TD*%
D16*
%TO.C,U3*%
X154500000Y-83460000D03*
D17*
X154500000Y-86000000D03*
X154500000Y-88540000D03*
X154500000Y-91080000D03*
X154500000Y-93620000D03*
X154500000Y-96160000D03*
X154500000Y-98700000D03*
X154500000Y-101240000D03*
X162120000Y-101240000D03*
X162120000Y-98700000D03*
X162120000Y-96160000D03*
X162120000Y-93620000D03*
X162120000Y-91080000D03*
X162120000Y-88540000D03*
X162120000Y-86000000D03*
X162120000Y-83460000D03*
%TD*%
D20*
%TO.C,SW1*%
X159250000Y-119750000D03*
X165750000Y-119750000D03*
X159250000Y-124250000D03*
X165750000Y-124250000D03*
%TD*%
D11*
%TO.C,R3*%
X159000000Y-62000000D03*
X159000000Y-51840000D03*
%TD*%
%TO.C,R1*%
X176000000Y-62080000D03*
X176000000Y-51920000D03*
%TD*%
%TO.C,R4*%
X150500000Y-62080000D03*
X150500000Y-51920000D03*
%TD*%
D12*
%TO.C,H3*%
X106500000Y-121500000D03*
%TD*%
%TO.C,H1*%
X106500000Y-52500000D03*
%TD*%
%TO.C,H2*%
X195500000Y-52500000D03*
%TD*%
D18*
%TO.C,D5*%
X150500000Y-69500000D03*
D19*
X150500000Y-72040000D03*
%TD*%
D21*
%TO.C,SW2*%
X125702500Y-88400000D03*
X125702500Y-96600000D03*
D22*
X125702500Y-90500000D03*
D23*
X125702500Y-92500000D03*
X125702500Y-94500000D03*
%TD*%
D24*
%TO.C,U5*%
X193420000Y-86960000D03*
D11*
X193420000Y-89500000D03*
X193420000Y-92040000D03*
X193420000Y-94580000D03*
X193420000Y-97120000D03*
X198500000Y-97120000D03*
X198500000Y-94580000D03*
X198500000Y-92040000D03*
X198500000Y-89500000D03*
X198500000Y-86960000D03*
%TD*%
D25*
%TO.C,J1*%
X108500000Y-75000000D03*
D26*
X108500000Y-70000000D03*
%TD*%
D27*
%TO.C,D4*%
X123300000Y-52500000D03*
D28*
X136000000Y-52500000D03*
%TD*%
M02*
