%TF.GenerationSoftware,KiCad,Pcbnew,9.0.3*%
%TF.CreationDate,2025-12-16T09:58:44+01:00*%
%TF.ProjectId,PTP_Dario_Ladovic_project1,5054505f-4461-4726-996f-5f4c61646f76,rev?*%
%TF.SameCoordinates,Original*%
%TF.FileFunction,Copper,L2,Bot*%
%TF.FilePolarity,Positive*%
%FSLAX46Y46*%
G04 Gerber Fmt 4.6, Leading zero omitted, Abs format (unit mm)*
G04 Created by KiCad (PCBNEW 9.0.3) date 2025-12-16 09:58:44*
%MOMM*%
%LPD*%
G01*
G04 APERTURE LIST*
G04 Aperture macros list*
%AMRoundRect*
0 Rectangle with rounded corners*
0 $1 Rounding radius*
0 $2 $3 $4 $5 $6 $7 $8 $9 X,Y pos of 4 corners*
0 Add a 4 corners polygon primitive as box body*
4,1,4,$2,$3,$4,$5,$6,$7,$8,$9,$2,$3,0*
0 Add four circle primitives for the rounded corners*
1,1,$1+$1,$2,$3*
1,1,$1+$1,$4,$5*
1,1,$1+$1,$6,$7*
1,1,$1+$1,$8,$9*
0 Add four rect primitives between the rounded corners*
20,1,$1+$1,$2,$3,$4,$5,0*
20,1,$1+$1,$4,$5,$6,$7,0*
20,1,$1+$1,$6,$7,$8,$9,0*
20,1,$1+$1,$8,$9,$2,$3,0*%
G04 Aperture macros list end*
%TA.AperFunction,ComponentPad*%
%ADD10RoundRect,0.250000X0.550000X0.550000X-0.550000X0.550000X-0.550000X-0.550000X0.550000X-0.550000X0*%
%TD*%
%TA.AperFunction,ComponentPad*%
%ADD11C,1.600000*%
%TD*%
%TA.AperFunction,ComponentPad*%
%ADD12RoundRect,0.250000X-0.550000X-0.550000X0.550000X-0.550000X0.550000X0.550000X-0.550000X0.550000X0*%
%TD*%
%TA.AperFunction,ComponentPad*%
%ADD13C,2.400000*%
%TD*%
%TA.AperFunction,ComponentPad*%
%ADD14RoundRect,0.250000X0.550000X-0.550000X0.550000X0.550000X-0.550000X0.550000X-0.550000X-0.550000X0*%
%TD*%
%TA.AperFunction,ComponentPad*%
%ADD15RoundRect,0.250000X-0.950000X-0.550000X0.950000X-0.550000X0.950000X0.550000X-0.950000X0.550000X0*%
%TD*%
%TA.AperFunction,ComponentPad*%
%ADD16O,2.400000X1.600000*%
%TD*%
%TA.AperFunction,ComponentPad*%
%ADD17R,1.800000X1.800000*%
%TD*%
%TA.AperFunction,ComponentPad*%
%ADD18C,1.800000*%
%TD*%
%TA.AperFunction,ComponentPad*%
%ADD19C,2.000000*%
%TD*%
%TA.AperFunction,ComponentPad*%
%ADD20O,3.500000X2.200000*%
%TD*%
%TA.AperFunction,ComponentPad*%
%ADD21R,2.500000X1.500000*%
%TD*%
%TA.AperFunction,ComponentPad*%
%ADD22O,2.500000X1.500000*%
%TD*%
%TA.AperFunction,ComponentPad*%
%ADD23R,1.600000X1.600000*%
%TD*%
%TA.AperFunction,ComponentPad*%
%ADD24RoundRect,0.250001X1.149999X-1.149999X1.149999X1.149999X-1.149999X1.149999X-1.149999X-1.149999X0*%
%TD*%
%TA.AperFunction,ComponentPad*%
%ADD25C,2.800000*%
%TD*%
%TA.AperFunction,ComponentPad*%
%ADD26RoundRect,0.249999X-0.850001X-0.850001X0.850001X-0.850001X0.850001X0.850001X-0.850001X0.850001X0*%
%TD*%
%TA.AperFunction,ComponentPad*%
%ADD27C,2.200000*%
%TD*%
%TA.AperFunction,ViaPad*%
%ADD28C,0.600000*%
%TD*%
%TA.AperFunction,Conductor*%
%ADD29C,0.200000*%
%TD*%
G04 APERTURE END LIST*
D10*
%TO.P,U1,1,FB*%
%TO.N,+5V*%
X130305000Y-65810000D03*
D11*
%TO.P,U1,2,SGND*%
%TO.N,GND*%
X130305000Y-63270000D03*
%TO.P,U1,3,~{ON}/OFF*%
X130305000Y-60730000D03*
%TO.P,U1,4,PGND*%
X130305000Y-58190000D03*
%TO.P,U1,5,VIN*%
%TO.N,VD*%
X122685000Y-58190000D03*
%TO.P,U1,6,NC*%
%TO.N,unconnected-(U1-NC-Pad6)*%
X122685000Y-60730000D03*
%TO.P,U1,7,OUT*%
%TO.N,Net-(D4-K)*%
X122685000Y-63270000D03*
%TO.P,U1,8,NC*%
%TO.N,unconnected-(U1-NC-Pad8)*%
X122685000Y-65810000D03*
%TD*%
D12*
%TO.P,U7,1,GND*%
%TO.N,GND*%
X107695000Y-95190000D03*
D11*
%TO.P,U7,2,TR*%
%TO.N,Net-(U7-THR)*%
X107695000Y-97730000D03*
%TO.P,U7,3,Q*%
%TO.N,555*%
X107695000Y-100270000D03*
%TO.P,U7,4,R*%
%TO.N,+5V*%
X107695000Y-102810000D03*
%TO.P,U7,5,CV*%
%TO.N,unconnected-(U7-CV-Pad5)*%
X115315000Y-102810000D03*
%TO.P,U7,6,THR*%
%TO.N,Net-(U7-THR)*%
X115315000Y-100270000D03*
%TO.P,U7,7,DIS*%
%TO.N,Net-(U7-DIS)*%
X115315000Y-97730000D03*
%TO.P,U7,8,VCC*%
%TO.N,+5V*%
X115315000Y-95190000D03*
%TD*%
D13*
%TO.P,L1,1,1*%
%TO.N,Net-(D4-K)*%
X136000000Y-65500000D03*
%TO.P,L1,2,2*%
%TO.N,+5V*%
X136000000Y-68500000D03*
%TD*%
D14*
%TO.P,C2,1*%
%TO.N,+5V*%
X136000000Y-59455113D03*
D11*
%TO.P,C2,2*%
%TO.N,GND*%
X136000000Y-57455113D03*
%TD*%
D15*
%TO.P,U4,1,B*%
%TO.N,Q1*%
X169000000Y-83460000D03*
D16*
%TO.P,U4,2,C*%
%TO.N,Q2*%
X169000000Y-86000000D03*
%TO.P,U4,3,LT*%
%TO.N,Net-(U4-BI)*%
X169000000Y-88540000D03*
%TO.P,U4,4,BI*%
X169000000Y-91080000D03*
%TO.P,U4,5,RBI*%
X169000000Y-93620000D03*
%TO.P,U4,6,D*%
%TO.N,Q3*%
X169000000Y-96160000D03*
%TO.P,U4,7,A*%
%TO.N,Q0*%
X169000000Y-98700000D03*
%TO.P,U4,8,GND*%
%TO.N,GND*%
X169000000Y-101240000D03*
%TO.P,U4,9,e*%
%TO.N,Net-(U4-e)*%
X176620000Y-101240000D03*
%TO.P,U4,10,d*%
%TO.N,Net-(U4-d)*%
X176620000Y-98700000D03*
%TO.P,U4,11,c*%
%TO.N,Net-(U4-c)*%
X176620000Y-96160000D03*
%TO.P,U4,12,b*%
%TO.N,Net-(U4-b)*%
X176620000Y-93620000D03*
%TO.P,U4,13,a*%
%TO.N,Net-(U4-a)*%
X176620000Y-91080000D03*
%TO.P,U4,14,g*%
%TO.N,Net-(U4-g)*%
X176620000Y-88540000D03*
%TO.P,U4,15,f*%
%TO.N,Net-(U4-f)*%
X176620000Y-86000000D03*
%TO.P,U4,16,VCC*%
%TO.N,unconnected-(U4-VCC-Pad16)*%
X176620000Y-83460000D03*
%TD*%
D17*
%TO.P,D3,1,K*%
%TO.N,Net-(D3-K)*%
X159000000Y-69500000D03*
D18*
%TO.P,D3,2,A*%
%TO.N,Q2*%
X159000000Y-72040000D03*
%TD*%
D15*
%TO.P,U2,1,Q*%
%TO.N,unconnected-(U2A-Q-Pad1)*%
X139880000Y-83460000D03*
D16*
%TO.P,U2,2,~{Q}*%
%TO.N,Q0*%
X139880000Y-86000000D03*
%TO.P,U2,3,C*%
%TO.N,Clock*%
X139880000Y-88540000D03*
%TO.P,U2,4,R*%
%TO.N,GND*%
X139880000Y-91080000D03*
%TO.P,U2,5,K*%
%TO.N,Net-(U2A-J)*%
X139880000Y-93620000D03*
%TO.P,U2,6,J*%
X139880000Y-96160000D03*
%TO.P,U2,7,S*%
%TO.N,Reset*%
X139880000Y-98700000D03*
%TO.P,U2,8,VSS*%
%TO.N,GND*%
X139880000Y-101240000D03*
%TO.P,U2,9,S*%
%TO.N,Reset*%
X147500000Y-101240000D03*
%TO.P,U2,10,J*%
%TO.N,Net-(U2B-J)*%
X147500000Y-98700000D03*
%TO.P,U2,11,K*%
X147500000Y-96160000D03*
%TO.P,U2,12,R*%
%TO.N,GND*%
X147500000Y-93620000D03*
%TO.P,U2,13,C*%
%TO.N,Q0*%
X147500000Y-91080000D03*
%TO.P,U2,14,~{Q}*%
%TO.N,Q1*%
X147500000Y-88540000D03*
%TO.P,U2,15,Q*%
%TO.N,unconnected-(U2B-Q-Pad15)*%
X147500000Y-86000000D03*
%TO.P,U2,16,VDD*%
%TO.N,+5V*%
X147500000Y-83460000D03*
%TD*%
D17*
%TO.P,D1,1,K*%
%TO.N,Net-(D1-K)*%
X176000000Y-69500000D03*
D18*
%TO.P,D1,2,A*%
%TO.N,Q0*%
X176000000Y-72040000D03*
%TD*%
D14*
%TO.P,C1,1*%
%TO.N,VD*%
X117500000Y-56500000D03*
D11*
%TO.P,C1,2*%
%TO.N,GND*%
X117500000Y-54500000D03*
%TD*%
%TO.P,R2,1*%
%TO.N,GND*%
X167500000Y-52000000D03*
%TO.P,R2,2*%
%TO.N,Net-(D2-K)*%
X167500000Y-62160000D03*
%TD*%
D17*
%TO.P,D2,1,K*%
%TO.N,Net-(D2-K)*%
X167500000Y-69500000D03*
D18*
%TO.P,D2,2,A*%
%TO.N,Q1*%
X167500000Y-72040000D03*
%TD*%
D15*
%TO.P,U3,1,Q*%
%TO.N,unconnected-(U3A-Q-Pad1)*%
X154500000Y-83460000D03*
D16*
%TO.P,U3,2,~{Q}*%
%TO.N,Q2*%
X154500000Y-86000000D03*
%TO.P,U3,3,C*%
%TO.N,Q1*%
X154500000Y-88540000D03*
%TO.P,U3,4,R*%
%TO.N,GND*%
X154500000Y-91080000D03*
%TO.P,U3,5,K*%
%TO.N,Net-(U3A-J)*%
X154500000Y-93620000D03*
%TO.P,U3,6,J*%
X154500000Y-96160000D03*
%TO.P,U3,7,S*%
%TO.N,Reset*%
X154500000Y-98700000D03*
%TO.P,U3,8,VSS*%
%TO.N,GND*%
X154500000Y-101240000D03*
%TO.P,U3,9,S*%
%TO.N,Reset*%
X162120000Y-101240000D03*
%TO.P,U3,10,J*%
%TO.N,Net-(U3B-J)*%
X162120000Y-98700000D03*
%TO.P,U3,11,K*%
X162120000Y-96160000D03*
%TO.P,U3,12,R*%
%TO.N,GND*%
X162120000Y-93620000D03*
%TO.P,U3,13,C*%
%TO.N,Q2*%
X162120000Y-91080000D03*
%TO.P,U3,14,~{Q}*%
%TO.N,Q3*%
X162120000Y-88540000D03*
%TO.P,U3,15,Q*%
%TO.N,unconnected-(U3B-Q-Pad15)*%
X162120000Y-86000000D03*
%TO.P,U3,16,VDD*%
%TO.N,+5V*%
X162120000Y-83460000D03*
%TD*%
D19*
%TO.P,SW1,1,A*%
%TO.N,GND*%
X159250000Y-119750000D03*
X165750000Y-119750000D03*
%TO.P,SW1,2,A*%
X159250000Y-124250000D03*
X165750000Y-124250000D03*
%TD*%
D11*
%TO.P,R3,1*%
%TO.N,Net-(D3-K)*%
X159000000Y-62000000D03*
%TO.P,R3,2*%
%TO.N,GND*%
X159000000Y-51840000D03*
%TD*%
%TO.P,R1,1*%
%TO.N,Net-(D1-K)*%
X176000000Y-62080000D03*
%TO.P,R1,2*%
%TO.N,GND*%
X176000000Y-51920000D03*
%TD*%
%TO.P,R4,1*%
%TO.N,Net-(D5-K)*%
X150500000Y-62080000D03*
%TO.P,R4,2*%
%TO.N,GND*%
X150500000Y-51920000D03*
%TD*%
D17*
%TO.P,D5,1,K*%
%TO.N,Net-(D5-K)*%
X150500000Y-69500000D03*
D18*
%TO.P,D5,2,A*%
%TO.N,Q3*%
X150500000Y-72040000D03*
%TD*%
D20*
%TO.P,SW2,*%
%TO.N,*%
X125702500Y-88400000D03*
X125702500Y-96600000D03*
D21*
%TO.P,SW2,1,C*%
%TO.N,555*%
X125702500Y-90500000D03*
D22*
%TO.P,SW2,2,B*%
%TO.N,Clock*%
X125702500Y-92500000D03*
%TO.P,SW2,3,A*%
%TO.N,Net-(SW2-A)*%
X125702500Y-94500000D03*
%TD*%
D23*
%TO.P,U5,1,CA*%
%TO.N,+5V*%
X193420000Y-86960000D03*
D11*
%TO.P,U5,2,F*%
%TO.N,Net-(U5-F)*%
X193420000Y-89500000D03*
%TO.P,U5,3,G*%
%TO.N,Net-(U5-G)*%
X193420000Y-92040000D03*
%TO.P,U5,4,E*%
%TO.N,Net-(U5-E)*%
X193420000Y-94580000D03*
%TO.P,U5,5,D*%
%TO.N,Net-(U5-D)*%
X193420000Y-97120000D03*
%TO.P,U5,6,CA*%
%TO.N,+5V*%
X198500000Y-97120000D03*
%TO.P,U5,7,DP*%
%TO.N,unconnected-(U5-DP-Pad7)*%
X198500000Y-94580000D03*
%TO.P,U5,8,C*%
%TO.N,Net-(U5-C)*%
X198500000Y-92040000D03*
%TO.P,U5,9,B*%
%TO.N,Net-(U5-B)*%
X198500000Y-89500000D03*
%TO.P,U5,10,A*%
%TO.N,Net-(U5-A)*%
X198500000Y-86960000D03*
%TD*%
D24*
%TO.P,J1,1,Pin_1*%
%TO.N,GND*%
X108500000Y-75000000D03*
D25*
%TO.P,J1,2,Pin_2*%
%TO.N,VD*%
X108500000Y-70000000D03*
%TD*%
D26*
%TO.P,D4,1,K*%
%TO.N,Net-(D4-K)*%
X123300000Y-52500000D03*
D27*
%TO.P,D4,2,A*%
%TO.N,GND*%
X136000000Y-52500000D03*
%TD*%
D28*
%TO.N,GND*%
X128500000Y-98000000D03*
%TO.N,Reset*%
X158500000Y-101500000D03*
X149500000Y-104500000D03*
%TO.N,+5V*%
X135500000Y-89500000D03*
X132500000Y-88000000D03*
%TO.N,Q0*%
X145500000Y-90579000D03*
X164000000Y-94000000D03*
X175500000Y-79000000D03*
%TO.N,Net-(U4-d)*%
X178721000Y-98500000D03*
%TO.N,Net-(U4-b)*%
X179725707Y-95836681D03*
%TO.N,Net-(U4-a)*%
X180174265Y-95174265D03*
%TO.N,Net-(U4-c)*%
X179000000Y-95500000D03*
%TO.N,Q3*%
X165000000Y-89000000D03*
X155500000Y-81500000D03*
%TO.N,+5V*%
X139000000Y-80000000D03*
%TO.N,Q2*%
X156500000Y-81000000D03*
X155845735Y-86345735D03*
%TO.N,Net-(U2B-J)*%
X151780054Y-101881525D03*
%TO.N,Net-(U5-A)*%
X185500000Y-94500000D03*
%TO.N,Net-(U5-C)*%
X185500000Y-93000000D03*
%TO.N,+5V*%
X136000000Y-92000000D03*
X132500000Y-102500000D03*
%TO.N,Net-(U5-C)*%
X186500000Y-92000000D03*
X187699265Y-93300735D03*
X197000000Y-92000000D03*
%TO.N,Net-(U5-A)*%
X196000000Y-88500000D03*
%TO.N,+5V*%
X168100000Y-80000000D03*
%TO.N,Net-(U2A-J)*%
X149701044Y-102020216D03*
%TO.N,Clock*%
X142500000Y-91680000D03*
%TO.N,GND*%
X133211500Y-91500000D03*
%TO.N,Q3*%
X130797031Y-91797031D03*
%TO.N,+5V*%
X137000000Y-89140000D03*
%TD*%
D29*
%TO.N,Net-(U5-A)*%
X193899000Y-90601000D02*
X196000000Y-88500000D01*
X189000000Y-91000000D02*
X189000000Y-90702000D01*
X189000000Y-90702000D02*
X188899000Y-90601000D01*
X185500000Y-94500000D02*
X189000000Y-91000000D01*
X188899000Y-90601000D02*
X193899000Y-90601000D01*
%TO.N,GND*%
X133500000Y-92500000D02*
X133500000Y-91500000D01*
X133500000Y-91500000D02*
X135000000Y-91500000D01*
X129500000Y-96500000D02*
X133500000Y-92500000D01*
X129500000Y-97000000D02*
X129500000Y-96500000D01*
X128500000Y-98000000D02*
X129500000Y-97000000D01*
%TO.N,Reset*%
X159500000Y-101500000D02*
X159760000Y-101240000D01*
X159760000Y-101240000D02*
X162120000Y-101240000D01*
X158500000Y-101500000D02*
X159500000Y-101500000D01*
X149500000Y-104500000D02*
X150195049Y-104500000D01*
X150195049Y-104500000D02*
X152999000Y-101696049D01*
X152999000Y-101696049D02*
X152999000Y-100201000D01*
X152999000Y-100201000D02*
X154500000Y-98700000D01*
%TO.N,+5V*%
X134000000Y-89500000D02*
X135500000Y-89500000D01*
X132500000Y-88000000D02*
X134000000Y-89500000D01*
%TO.N,Q0*%
X144459000Y-90579000D02*
X139880000Y-86000000D01*
X145500000Y-90579000D02*
X144459000Y-90579000D01*
X164000000Y-94000000D02*
X164000000Y-93542951D01*
X162638049Y-92181000D02*
X148601000Y-92181000D01*
X164000000Y-93542951D02*
X162638049Y-92181000D01*
X148601000Y-92181000D02*
X147500000Y-91080000D01*
X175000000Y-79500000D02*
X175000000Y-92700000D01*
X175500000Y-79000000D02*
X175000000Y-79500000D01*
X175000000Y-92700000D02*
X169000000Y-98700000D01*
%TO.N,Net-(U4-d)*%
X178521000Y-98700000D02*
X176620000Y-98700000D01*
X178721000Y-98500000D02*
X178521000Y-98700000D01*
%TO.N,Net-(U4-b)*%
X175119000Y-95121000D02*
X176620000Y-93620000D01*
X175119000Y-96616049D02*
X175119000Y-95121000D01*
X175763951Y-97261000D02*
X175119000Y-96616049D01*
X178301388Y-97261000D02*
X175763951Y-97261000D01*
X179725707Y-95836681D02*
X178301388Y-97261000D01*
%TO.N,Net-(U4-a)*%
X180174265Y-94634265D02*
X176620000Y-91080000D01*
X180174265Y-95174265D02*
X180174265Y-94634265D01*
%TO.N,Net-(U4-c)*%
X179000000Y-95500000D02*
X178340000Y-96160000D01*
X178340000Y-96160000D02*
X176620000Y-96160000D01*
%TO.N,Q3*%
X165000000Y-92160000D02*
X169000000Y-96160000D01*
X165000000Y-89000000D02*
X165000000Y-92160000D01*
X160619000Y-87039000D02*
X162120000Y-88540000D01*
X160619000Y-84269057D02*
X160619000Y-87039000D01*
X156748943Y-80399000D02*
X160619000Y-84269057D01*
X156251057Y-80399000D02*
X156748943Y-80399000D01*
X155500000Y-81150057D02*
X156251057Y-80399000D01*
X155500000Y-81500000D02*
X155500000Y-81150057D01*
%TO.N,Q2*%
X156500000Y-84000000D02*
X154500000Y-86000000D01*
X156500000Y-81000000D02*
X156500000Y-84000000D01*
X160580000Y-91080000D02*
X162120000Y-91080000D01*
X155845735Y-86345735D02*
X160580000Y-91080000D01*
%TO.N,Net-(U2B-J)*%
X150681525Y-101881525D02*
X147500000Y-98700000D01*
X151780054Y-101881525D02*
X150681525Y-101881525D01*
%TO.N,+5V*%
X135715271Y-92000000D02*
X136000000Y-92000000D01*
X132500000Y-95215271D02*
X135715271Y-92000000D01*
X132500000Y-95500000D02*
X132500000Y-95215271D01*
X132500000Y-102500000D02*
X132500000Y-95500000D01*
%TO.N,Net-(U5-C)*%
X186500000Y-92000000D02*
X185500000Y-93000000D01*
X195699265Y-93300735D02*
X187699265Y-93300735D01*
X197000000Y-92000000D02*
X195699265Y-93300735D01*
%TO.N,+5V*%
X167500000Y-80000000D02*
X164040000Y-83460000D01*
X164040000Y-83460000D02*
X162120000Y-83460000D01*
X168100000Y-80000000D02*
X167500000Y-80000000D01*
%TO.N,Q3*%
X131000000Y-81500000D02*
X133500000Y-79000000D01*
X143540000Y-79000000D02*
X150500000Y-72040000D01*
X131000000Y-91594062D02*
X131000000Y-81500000D01*
X133500000Y-79000000D02*
X143540000Y-79000000D01*
X130797031Y-91797031D02*
X131000000Y-91594062D01*
%TO.N,Net-(U2A-J)*%
X149380260Y-102341000D02*
X146061000Y-102341000D01*
X149701044Y-102020216D02*
X149380260Y-102341000D01*
X146061000Y-102341000D02*
X139880000Y-96160000D01*
%TO.N,Clock*%
X142500000Y-91160000D02*
X139880000Y-88540000D01*
X142500000Y-91680000D02*
X142500000Y-91160000D01*
%TO.N,GND*%
X133211500Y-91500000D02*
X133500000Y-91500000D01*
X135000000Y-91500000D02*
X135420000Y-91080000D01*
X135420000Y-91080000D02*
X139880000Y-91080000D01*
%TO.N,+5V*%
X147500000Y-81000000D02*
X147500000Y-83460000D01*
X146500000Y-80000000D02*
X147500000Y-81000000D01*
X137000000Y-89140000D02*
X137000000Y-82000000D01*
X139000000Y-80000000D02*
X146500000Y-80000000D01*
X137000000Y-82000000D02*
X139000000Y-80000000D01*
%TD*%
M02*
