M48
; DRILL file {KiCad 9.0.3} date 2025-12-16T09:57:54+0100
; FORMAT={-:-/ absolute / metric / decimal}
; #@! TF.CreationDate,2025-12-16T09:57:54+01:00
; #@! TF.GenerationSoftware,Kicad,Pcbnew,9.0.3
; #@! TF.FileFunction,MixedPlating,1,2
FMAT,2
METRIC
; #@! TA.AperFunction,Plated,PTH,ViaDrill
T1C0.300
; #@! TA.AperFunction,Plated,PTH,ComponentDrill
T2C0.800
; #@! TA.AperFunction,Plated,PTH,ComponentDrill
T3C0.900
; #@! TA.AperFunction,Plated,PTH,ComponentDrill
T4C1.100
; #@! TA.AperFunction,Plated,PTH,ComponentDrill
T5C1.200
; #@! TA.AperFunction,Plated,PTH,ComponentDrill
T6C1.400
; #@! TA.AperFunction,Plated,PTH,ComponentDrill
T7C1.500
; #@! TA.AperFunction,NonPlated,NPTH,ComponentDrill
T8C5.500
%
G90
G05
T1
X128.5Y-98.0
X130.797Y-91.797
X132.5Y-88.0
X132.5Y-102.5
X133.212Y-91.5
X135.5Y-89.5
X136.0Y-92.0
X137.0Y-89.14
X139.0Y-80.0
X142.5Y-91.68
X145.5Y-90.579
X149.5Y-104.5
X149.701Y-102.02
X151.78Y-101.882
X155.5Y-81.5
X155.846Y-86.346
X156.5Y-81.0
X158.5Y-101.5
X164.0Y-94.0
X165.0Y-89.0
X168.1Y-80.0
X175.5Y-79.0
X178.721Y-98.5
X179.0Y-95.5
X179.726Y-95.837
X180.174Y-95.174
X185.5Y-93.0
X185.5Y-94.5
X186.5Y-92.0
X187.699Y-93.301
X196.0Y-88.5
X197.0Y-92.0
T2
X107.695Y-95.19
X107.695Y-97.73
X107.695Y-100.27
X107.695Y-102.81
X115.315Y-95.19
X115.315Y-97.73
X115.315Y-100.27
X115.315Y-102.81
X117.5Y-54.5
X117.5Y-56.5
X122.685Y-58.19
X122.685Y-60.73
X122.685Y-63.27
X122.685Y-65.81
X125.703Y-90.5
X125.703Y-92.5
X125.703Y-94.5
X130.305Y-58.19
X130.305Y-60.73
X130.305Y-63.27
X130.305Y-65.81
X136.0Y-57.455
X136.0Y-59.455
X139.88Y-83.46
X139.88Y-86.0
X139.88Y-88.54
X139.88Y-91.08
X139.88Y-93.62
X139.88Y-96.16
X139.88Y-98.7
X139.88Y-101.24
X147.5Y-83.46
X147.5Y-86.0
X147.5Y-88.54
X147.5Y-91.08
X147.5Y-93.62
X147.5Y-96.16
X147.5Y-98.7
X147.5Y-101.24
X150.5Y-51.92
X150.5Y-62.08
X154.5Y-83.46
X154.5Y-86.0
X154.5Y-88.54
X154.5Y-91.08
X154.5Y-93.62
X154.5Y-96.16
X154.5Y-98.7
X154.5Y-101.24
X159.0Y-51.84
X159.0Y-62.0
X162.12Y-83.46
X162.12Y-86.0
X162.12Y-88.54
X162.12Y-91.08
X162.12Y-93.62
X162.12Y-96.16
X162.12Y-98.7
X162.12Y-101.24
X167.5Y-52.0
X167.5Y-62.16
X169.0Y-83.46
X169.0Y-86.0
X169.0Y-88.54
X169.0Y-91.08
X169.0Y-93.62
X169.0Y-96.16
X169.0Y-98.7
X169.0Y-101.24
X176.0Y-51.92
X176.0Y-62.08
X176.62Y-83.46
X176.62Y-86.0
X176.62Y-88.54
X176.62Y-91.08
X176.62Y-93.62
X176.62Y-96.16
X176.62Y-98.7
X176.62Y-101.24
X193.42Y-86.96
X193.42Y-89.5
X193.42Y-92.04
X193.42Y-94.58
X193.42Y-97.12
X198.5Y-86.96
X198.5Y-89.5
X198.5Y-92.04
X198.5Y-94.58
X198.5Y-97.12
T3
X150.5Y-69.5
X150.5Y-72.04
X159.0Y-69.5
X159.0Y-72.04
X167.5Y-69.5
X167.5Y-72.04
X176.0Y-69.5
X176.0Y-72.04
T4
X123.3Y-52.5
X136.0Y-52.5
X159.25Y-119.75
X159.25Y-124.25
X165.75Y-119.75
X165.75Y-124.25
T5
X136.0Y-65.5
X136.0Y-68.5
T6
X108.5Y-70.0
X108.5Y-75.0
T7
X125.703Y-88.4
X125.703Y-96.6
T8
X106.5Y-52.5
X106.5Y-121.5
X195.5Y-52.5
X195.5Y-121.5
M30
