%TF.GenerationSoftware,KiCad,Pcbnew,9.0.3*%
%TF.CreationDate,2025-12-16T09:58:44+01:00*%
%TF.ProjectId,PTP_Dario_Ladovic_project1,5054505f-4461-4726-996f-5f4c61646f76,rev?*%
%TF.SameCoordinates,Original*%
%TF.FileFunction,Soldermask,Top*%
%TF.FilePolarity,Negative*%
%FSLAX46Y46*%
G04 Gerber Fmt 4.6, Leading zero omitted, Abs format (unit mm)*
G04 Created by KiCad (PCBNEW 9.0.3) date 2025-12-16 09:58:44*
%MOMM*%
%LPD*%
G01*
G04 APERTURE LIST*
G04 Aperture macros list*
%AMRoundRect*
0 Rectangle with rounded corners*
0 $1 Rounding radius*
0 $2 $3 $4 $5 $6 $7 $8 $9 X,Y pos of 4 corners*
0 Add a 4 corners polygon primitive as box body*
4,1,4,$2,$3,$4,$5,$6,$7,$8,$9,$2,$3,0*
0 Add four circle primitives for the rounded corners*
1,1,$1+$1,$2,$3*
1,1,$1+$1,$4,$5*
1,1,$1+$1,$6,$7*
1,1,$1+$1,$8,$9*
0 Add four rect primitives between the rounded corners*
20,1,$1+$1,$2,$3,$4,$5,0*
20,1,$1+$1,$4,$5,$6,$7,0*
20,1,$1+$1,$6,$7,$8,$9,0*
20,1,$1+$1,$8,$9,$2,$3,0*%
G04 Aperture macros list end*
%ADD10RoundRect,0.250000X0.550000X0.550000X-0.550000X0.550000X-0.550000X-0.550000X0.550000X-0.550000X0*%
%ADD11C,1.600000*%
%ADD12RoundRect,0.250000X0.625000X-0.400000X0.625000X0.400000X-0.625000X0.400000X-0.625000X-0.400000X0*%
%ADD13C,5.500000*%
%ADD14RoundRect,0.250000X-0.550000X-0.550000X0.550000X-0.550000X0.550000X0.550000X-0.550000X0.550000X0*%
%ADD15C,2.400000*%
%ADD16RoundRect,0.250000X0.550000X-0.550000X0.550000X0.550000X-0.550000X0.550000X-0.550000X-0.550000X0*%
%ADD17RoundRect,0.250000X-0.950000X-0.550000X0.950000X-0.550000X0.950000X0.550000X-0.950000X0.550000X0*%
%ADD18O,2.400000X1.600000*%
%ADD19R,1.800000X1.800000*%
%ADD20C,1.800000*%
%ADD21RoundRect,0.250000X-0.400000X-0.625000X0.400000X-0.625000X0.400000X0.625000X-0.400000X0.625000X0*%
%ADD22RoundRect,0.250000X-0.650000X0.412500X-0.650000X-0.412500X0.650000X-0.412500X0.650000X0.412500X0*%
%ADD23C,2.000000*%
%ADD24RoundRect,0.250000X-0.412500X-0.650000X0.412500X-0.650000X0.412500X0.650000X-0.412500X0.650000X0*%
%ADD25O,3.500000X2.200000*%
%ADD26R,2.500000X1.500000*%
%ADD27O,2.500000X1.500000*%
%ADD28R,1.600000X1.600000*%
%ADD29RoundRect,0.250001X1.149999X-1.149999X1.149999X1.149999X-1.149999X1.149999X-1.149999X-1.149999X0*%
%ADD30C,2.800000*%
%ADD31RoundRect,0.249999X-0.850001X-0.850001X0.850001X-0.850001X0.850001X0.850001X-0.850001X0.850001X0*%
%ADD32C,2.200000*%
%ADD33RoundRect,0.150000X-0.512500X-0.150000X0.512500X-0.150000X0.512500X0.150000X-0.512500X0.150000X0*%
G04 APERTURE END LIST*
D10*
%TO.C,U1*%
X130305000Y-65810000D03*
D11*
X130305000Y-63270000D03*
X130305000Y-60730000D03*
X130305000Y-58190000D03*
X122685000Y-58190000D03*
X122685000Y-60730000D03*
X122685000Y-63270000D03*
X122685000Y-65810000D03*
%TD*%
D12*
%TO.C,R19*%
X104500000Y-100600000D03*
X104500000Y-97500000D03*
%TD*%
%TO.C,R11*%
X162500000Y-110650000D03*
X162500000Y-107550000D03*
%TD*%
D13*
%TO.C,H4*%
X195500000Y-121500000D03*
%TD*%
D14*
%TO.C,U7*%
X107695000Y-95190000D03*
D11*
X107695000Y-97730000D03*
X107695000Y-100270000D03*
X107695000Y-102810000D03*
X115315000Y-102810000D03*
X115315000Y-100270000D03*
X115315000Y-97730000D03*
X115315000Y-95190000D03*
%TD*%
D15*
%TO.C,L1*%
X136000000Y-65500000D03*
X136000000Y-68500000D03*
%TD*%
D12*
%TO.C,R20*%
X104500000Y-106550000D03*
X104500000Y-103450000D03*
%TD*%
D16*
%TO.C,C2*%
X136000000Y-59455113D03*
D11*
X136000000Y-57455113D03*
%TD*%
D17*
%TO.C,U4*%
X169000000Y-83460000D03*
D18*
X169000000Y-86000000D03*
X169000000Y-88540000D03*
X169000000Y-91080000D03*
X169000000Y-93620000D03*
X169000000Y-96160000D03*
X169000000Y-98700000D03*
X169000000Y-101240000D03*
X176620000Y-101240000D03*
X176620000Y-98700000D03*
X176620000Y-96160000D03*
X176620000Y-93620000D03*
X176620000Y-91080000D03*
X176620000Y-88540000D03*
X176620000Y-86000000D03*
X176620000Y-83460000D03*
%TD*%
D19*
%TO.C,D3*%
X159000000Y-69500000D03*
D20*
X159000000Y-72040000D03*
%TD*%
D17*
%TO.C,U2*%
X139880000Y-83460000D03*
D18*
X139880000Y-86000000D03*
X139880000Y-88540000D03*
X139880000Y-91080000D03*
X139880000Y-93620000D03*
X139880000Y-96160000D03*
X139880000Y-98700000D03*
X139880000Y-101240000D03*
X147500000Y-101240000D03*
X147500000Y-98700000D03*
X147500000Y-96160000D03*
X147500000Y-93620000D03*
X147500000Y-91080000D03*
X147500000Y-88540000D03*
X147500000Y-86000000D03*
X147500000Y-83460000D03*
%TD*%
D19*
%TO.C,D1*%
X176000000Y-69500000D03*
D20*
X176000000Y-72040000D03*
%TD*%
D21*
%TO.C,R15*%
X180900000Y-83000000D03*
X184000000Y-83000000D03*
%TD*%
D16*
%TO.C,C1*%
X117500000Y-56500000D03*
D11*
X117500000Y-54500000D03*
%TD*%
%TO.C,R2*%
X167500000Y-52000000D03*
X167500000Y-62160000D03*
%TD*%
D21*
%TO.C,R5*%
X180900000Y-95500000D03*
X184000000Y-95500000D03*
%TD*%
D19*
%TO.C,D2*%
X167500000Y-69500000D03*
D20*
X167500000Y-72040000D03*
%TD*%
D17*
%TO.C,U3*%
X154500000Y-83460000D03*
D18*
X154500000Y-86000000D03*
X154500000Y-88540000D03*
X154500000Y-91080000D03*
X154500000Y-93620000D03*
X154500000Y-96160000D03*
X154500000Y-98700000D03*
X154500000Y-101240000D03*
X162120000Y-101240000D03*
X162120000Y-98700000D03*
X162120000Y-96160000D03*
X162120000Y-93620000D03*
X162120000Y-91080000D03*
X162120000Y-88540000D03*
X162120000Y-86000000D03*
X162120000Y-83460000D03*
%TD*%
D22*
%TO.C,C5*%
X119000000Y-99937500D03*
X119000000Y-103062500D03*
%TD*%
D23*
%TO.C,SW1*%
X159250000Y-119750000D03*
X165750000Y-119750000D03*
X159250000Y-124250000D03*
X165750000Y-124250000D03*
%TD*%
D11*
%TO.C,R3*%
X159000000Y-62000000D03*
X159000000Y-51840000D03*
%TD*%
D24*
%TO.C,C4*%
X109875000Y-108500000D03*
X113000000Y-108500000D03*
%TD*%
D11*
%TO.C,R1*%
X176000000Y-62080000D03*
X176000000Y-51920000D03*
%TD*%
%TO.C,R4*%
X150500000Y-62080000D03*
X150500000Y-51920000D03*
%TD*%
D21*
%TO.C,R14*%
X180950000Y-100500000D03*
X184050000Y-100500000D03*
%TD*%
D12*
%TO.C,R7*%
X153500000Y-110600000D03*
X153500000Y-107500000D03*
%TD*%
D22*
%TO.C,C3*%
X147500000Y-107500000D03*
X147500000Y-110625000D03*
%TD*%
D13*
%TO.C,H3*%
X106500000Y-121500000D03*
%TD*%
D12*
%TO.C,R12*%
X165500000Y-110650000D03*
X165500000Y-107550000D03*
%TD*%
D21*
%TO.C,R8*%
X180900000Y-93000000D03*
X184000000Y-93000000D03*
%TD*%
D13*
%TO.C,H1*%
X106500000Y-52500000D03*
%TD*%
%TO.C,H2*%
X195500000Y-52500000D03*
%TD*%
D21*
%TO.C,R18*%
X180900000Y-88000000D03*
X184000000Y-88000000D03*
%TD*%
D12*
%TO.C,R10*%
X159500000Y-110600000D03*
X159500000Y-107500000D03*
%TD*%
D19*
%TO.C,D5*%
X150500000Y-69500000D03*
D20*
X150500000Y-72040000D03*
%TD*%
D12*
%TO.C,R9*%
X156500000Y-110550000D03*
X156500000Y-107450000D03*
%TD*%
D21*
%TO.C,R6*%
X180900000Y-98130000D03*
X184000000Y-98130000D03*
%TD*%
D25*
%TO.C,SW2*%
X125702500Y-88400000D03*
X125702500Y-96600000D03*
D26*
X125702500Y-90500000D03*
D27*
X125702500Y-92500000D03*
X125702500Y-94500000D03*
%TD*%
D28*
%TO.C,U5*%
X193420000Y-86960000D03*
D11*
X193420000Y-89500000D03*
X193420000Y-92040000D03*
X193420000Y-94580000D03*
X193420000Y-97120000D03*
X198500000Y-97120000D03*
X198500000Y-94580000D03*
X198500000Y-92040000D03*
X198500000Y-89500000D03*
X198500000Y-86960000D03*
%TD*%
D21*
%TO.C,R17*%
X180900000Y-85500000D03*
X184000000Y-85500000D03*
%TD*%
%TO.C,R16*%
X180950000Y-90500000D03*
X184050000Y-90500000D03*
%TD*%
D29*
%TO.C,J1*%
X108500000Y-75000000D03*
D30*
X108500000Y-70000000D03*
%TD*%
D12*
%TO.C,R13*%
X150500000Y-110550000D03*
X150500000Y-107450000D03*
%TD*%
D31*
%TO.C,D4*%
X123300000Y-52500000D03*
D32*
X136000000Y-52500000D03*
%TD*%
D33*
%TO.C,U6*%
X132500000Y-90550000D03*
X132500000Y-91500000D03*
X132500000Y-92450000D03*
X134775000Y-92450000D03*
X134775000Y-91500000D03*
X134775000Y-90550000D03*
%TD*%
M02*
