%TF.GenerationSoftware,KiCad,Pcbnew,9.0.3*%
%TF.CreationDate,2025-12-16T09:58:44+01:00*%
%TF.ProjectId,PTP_Dario_Ladovic_project1,5054505f-4461-4726-996f-5f4c61646f76,rev?*%
%TF.SameCoordinates,Original*%
%TF.FileFunction,Paste,Top*%
%TF.FilePolarity,Positive*%
%FSLAX46Y46*%
G04 Gerber Fmt 4.6, Leading zero omitted, Abs format (unit mm)*
G04 Created by KiCad (PCBNEW 9.0.3) date 2025-12-16 09:58:44*
%MOMM*%
%LPD*%
G01*
G04 APERTURE LIST*
G04 Aperture macros list*
%AMRoundRect*
0 Rectangle with rounded corners*
0 $1 Rounding radius*
0 $2 $3 $4 $5 $6 $7 $8 $9 X,Y pos of 4 corners*
0 Add a 4 corners polygon primitive as box body*
4,1,4,$2,$3,$4,$5,$6,$7,$8,$9,$2,$3,0*
0 Add four circle primitives for the rounded corners*
1,1,$1+$1,$2,$3*
1,1,$1+$1,$4,$5*
1,1,$1+$1,$6,$7*
1,1,$1+$1,$8,$9*
0 Add four rect primitives between the rounded corners*
20,1,$1+$1,$2,$3,$4,$5,0*
20,1,$1+$1,$4,$5,$6,$7,0*
20,1,$1+$1,$6,$7,$8,$9,0*
20,1,$1+$1,$8,$9,$2,$3,0*%
G04 Aperture macros list end*
%ADD10RoundRect,0.250000X0.625000X-0.400000X0.625000X0.400000X-0.625000X0.400000X-0.625000X-0.400000X0*%
%ADD11RoundRect,0.250000X-0.400000X-0.625000X0.400000X-0.625000X0.400000X0.625000X-0.400000X0.625000X0*%
%ADD12RoundRect,0.250000X-0.650000X0.412500X-0.650000X-0.412500X0.650000X-0.412500X0.650000X0.412500X0*%
%ADD13RoundRect,0.250000X-0.412500X-0.650000X0.412500X-0.650000X0.412500X0.650000X-0.412500X0.650000X0*%
%ADD14RoundRect,0.150000X-0.512500X-0.150000X0.512500X-0.150000X0.512500X0.150000X-0.512500X0.150000X0*%
G04 APERTURE END LIST*
D10*
%TO.C,R19*%
X104500000Y-100600000D03*
X104500000Y-97500000D03*
%TD*%
%TO.C,R11*%
X162500000Y-110650000D03*
X162500000Y-107550000D03*
%TD*%
%TO.C,R20*%
X104500000Y-106550000D03*
X104500000Y-103450000D03*
%TD*%
D11*
%TO.C,R15*%
X180900000Y-83000000D03*
X184000000Y-83000000D03*
%TD*%
%TO.C,R5*%
X180900000Y-95500000D03*
X184000000Y-95500000D03*
%TD*%
D12*
%TO.C,C5*%
X119000000Y-99937500D03*
X119000000Y-103062500D03*
%TD*%
D13*
%TO.C,C4*%
X109875000Y-108500000D03*
X113000000Y-108500000D03*
%TD*%
D11*
%TO.C,R14*%
X180950000Y-100500000D03*
X184050000Y-100500000D03*
%TD*%
D10*
%TO.C,R7*%
X153500000Y-110600000D03*
X153500000Y-107500000D03*
%TD*%
D12*
%TO.C,C3*%
X147500000Y-107500000D03*
X147500000Y-110625000D03*
%TD*%
D10*
%TO.C,R12*%
X165500000Y-110650000D03*
X165500000Y-107550000D03*
%TD*%
D11*
%TO.C,R8*%
X180900000Y-93000000D03*
X184000000Y-93000000D03*
%TD*%
%TO.C,R18*%
X180900000Y-88000000D03*
X184000000Y-88000000D03*
%TD*%
D10*
%TO.C,R10*%
X159500000Y-110600000D03*
X159500000Y-107500000D03*
%TD*%
%TO.C,R9*%
X156500000Y-110550000D03*
X156500000Y-107450000D03*
%TD*%
D11*
%TO.C,R6*%
X180900000Y-98130000D03*
X184000000Y-98130000D03*
%TD*%
%TO.C,R17*%
X180900000Y-85500000D03*
X184000000Y-85500000D03*
%TD*%
%TO.C,R16*%
X180950000Y-90500000D03*
X184050000Y-90500000D03*
%TD*%
D10*
%TO.C,R13*%
X150500000Y-110550000D03*
X150500000Y-107450000D03*
%TD*%
D14*
%TO.C,U6*%
X132500000Y-90550000D03*
X132500000Y-91500000D03*
X132500000Y-92450000D03*
X134775000Y-92450000D03*
X134775000Y-91500000D03*
X134775000Y-90550000D03*
%TD*%
M02*
